<svg xmlns="http://www.w3.org/2000/svg" xmlns:xlink="http://www.w3.org/1999/xlink" version="1.1" 
x="0px" y="0px" viewBox="0 0 512 512" style="enable-background:new 0 0 512 512;" xml:space="preserve">
<g>
	<g>
		<path d="M474.984,206.267c-3.018-1.346-6.477-1.346-9.495,0c-6.175,2.774-37.016,17.736-37.016,40.753    c0,0.536,0.013,1.07,0.032,1.602h-22.458c-1.508-4.585-3.627-8.863-6.252-12.755c15.875-2.018,30.052-10.906,38.816-24.631    c10.051-15.741,11.355-35.262,3.488-52.224c-15.562-33.521-42.588-60.543-76.118-76.096c-0.045-0.021-0.092-0.039-0.137-0.06    c-1.014-19.127-8.42-37.181-21.316-51.57c-3.262-3.645-6.918-7.057-10.841-10.156c-2.426-1.904-5.513-2.774-8.578-2.403    c-3.053,0.371-5.85,1.938-7.754,4.376c-5.459,6.971-9.743,14.708-12.752,22.914c-4.008-2.657-8.238-4.989-12.697-6.94    c-4.536-1.99-9.292-3.588-14.135-4.752c-6.231-1.501-12.491,2.332-13.995,8.557c-1.57,6.497-2.368,13.155-2.368,19.792    c0,23.737,10.254,46.562,27.747,62.423c-0.305,2.346-0.458,4.713-0.458,7.082v11.964l-47.444,47.444    c-15.443-31.791-38.681-59.051-67.991-79.51C138.325,87.688,97.27,74.792,54.52,74.792c-19.21,0-37.341,7.382-51.037,20.789    c-3.331,3.273-4.388,8.218-2.67,12.559c1.718,4.341,5.862,7.243,10.528,7.347c17.399,0.395,31.56,14.915,31.56,32.35    c0,0.174,0,0.348,0.012,0.511v137.349c0,114.506,93.149,207.483,207.655,207.483v-0.015c2.123,0.117,4.254,0.193,6.397,0.193    h150.797c18.878,0,34.237-15.359,34.237-34.238c0-18.879-15.359-34.237-34.237-34.237h-45.284    c6.569-14.701,9.982-30.651,9.982-47.02c0-22.237-6.324-43.023-17.258-60.663h93.839c17.596,0,32.129-13.321,34.063-30.408    C499.994,281.415,512,265.735,512,247.02C512,224.003,481.159,209.041,474.984,206.267z M328.732,48.5    c7.042,8.477,11.569,18.56,13.261,29.321c-2.862,0.056-5.719,0.332-8.548,0.848c-2.671-5.374-5.907-10.433-9.679-15.141    C324.758,58.321,326.424,53.266,328.732,48.5z M66.128,285.696v-137.86c0-0.197,0-0.383-0.012-0.58    c-0.151-14.405-5.757-27.985-15.844-38.293c-3.285-3.355-6.93-6.256-10.841-8.636c4.817-1.532,9.889-2.321,15.09-2.321    c37.968,0,74.438,11.445,105.452,33.104c28.271,19.735,50.21,46.584,63.804,77.952l-40.057,40.057    c-47.655,47.656-59.194,120.897-28.821,182.443c0.222,0.671,7.744,13.285,11.82,18.384    C107.055,419.359,66.128,357.221,66.128,285.696z M449.042,293.983H336.274c-20.704-19.586-48.627-31.616-79.309-31.616    c-6.411,0-11.607,5.198-11.607,11.607c0,6.411,5.197,11.607,11.607,11.607c50.883,0,92.28,41.396,92.28,92.279    c0,18.689-5.566,36.693-16.097,52.068c-2.434,3.553-2.7,8.161-0.692,11.972c2.008,3.81,5.961,6.195,10.268,6.195h65.037    c6.078,0,11.022,4.945,11.022,11.022s-4.945,11.023-11.022,11.023H256.965c-33.384,0-64.155-18.053-80.506-47.156    c-0.15-0.41-0.317-0.817-0.517-1.216c-26.262-52.716-16.539-115.501,24.192-156.235l108.379-108.378    c2.176-2.178,3.4-5.129,3.4-8.208v-16.771c0-2.867,0.39-5.726,1.157-8.498c1.271-4.588-0.39-9.489-4.189-12.358    c-15.188-11.475-24.256-29.661-24.256-48.647c0-0.463,0.005-0.929,0.016-1.392c6.918,3.335,13.071,7.908,18.309,13.612    c5.746,6.267,10.059,13.521,12.818,21.563c1.04,3.03,3.285,5.496,6.205,6.814c2.919,1.316,6.254,1.371,9.214,0.144    c6.439-2.665,13.359-3.107,20.024-1.271c1.682,0.46,3.378,1.084,5.021,1.842c28.54,13.239,51.557,36.253,64.811,64.799    c4.514,9.734,3.768,20.933-1.996,29.96c-5.823,9.119-15.37,14.349-26.195,14.349h-34.752c-6.411,0-11.607,5.198-11.607,11.607    c0,6.218,4.895,11.281,11.04,11.578l-0.001,0.016h0.163c14.045,0.499,25.908,11.387,27.579,25.327    c0.708,5.827,5.653,10.214,11.526,10.214h52.245c2.96,0,5.641,1.258,7.812,3.227c3.262,2.959,3.262,6.895,3.262,7.846    C460.115,289.015,455.147,293.983,449.042,293.983z M477.644,264c-1.264-1.909-2.723-3.703-4.367-5.351    c-5.835-5.815-13.381-9.272-21.494-9.912c-0.052-0.569-0.095-1.14-0.095-1.719c0-4.028,8.508-11.712,18.572-17.202    c10.737,5.792,18.525,13.511,18.525,17.202C488.785,254.539,484.178,261.114,477.644,264z" style="fill: rgb(145, 220, 90);"></path>
	</g>
</g>
<g>
	<g>
		<path d="M224.491,400.94c-12.503-23.256-13.021-51.306-1.386-75.032c2.823-5.756,0.445-12.71-5.31-15.533    c-5.755-2.821-12.709-0.446-15.533,5.31c-14.925,30.432-14.258,66.412,1.783,96.247c2.095,3.898,6.097,6.114,10.233,6.114    c1.855,0,3.738-0.447,5.487-1.386C225.41,413.625,227.527,406.586,224.491,400.94z" style="fill: rgb(145, 220, 90);"></path>
	</g>
</g>
<g>
	<g>
		<circle cx="359.618" cy="150.976" r="11.607" style="fill: rgb(145, 220, 90);"></circle>
	</g>
</g>
</svg>