<svg xmlns="http://www.w3.org/2000/svg" xmlns:xlink="http://www.w3.org/1999/xlink" id="processonSvg1000" viewBox="63.36665344238281 36.0333251953125 916.5 933.8333511352539" width="916.5" height="933.8333511352539"><defs id="ProcessOnDefs1001"><marker id="ProcessOnMarker1018" markerUnits="userSpaceOnUse" orient="auto" markerWidth="16.23606797749979" markerHeight="10.550836550532098" viewBox="-1.0 -1.3763819204711736 16.23606797749979 10.550836550532098" refX="-1.0" refY="3.8990363547948754"><path id="ProcessOnPath1019" d="M12.0 3.8990363547948754L0.0 7.798072709589751V0.0Z" stroke="#323232" stroke-width="2.0" fill="#323232" transform="matrix(1.0,0.0,0.0,1.0,0.0,0.0)"/></marker><marker id="ProcessOnMarker1022" markerUnits="userSpaceOnUse" orient="auto" markerWidth="16.23606797749979" markerHeight="10.550836550532098" viewBox="-1.0 -1.3763819204711736 16.23606797749979 10.550836550532098" refX="-1.0" refY="3.8990363547948754"><path id="ProcessOnPath1023" d="M12.0 3.8990363547948754L0.0 7.798072709589751V0.0Z" stroke="#323232" stroke-width="2.0" fill="#323232" transform="matrix(1.0,0.0,0.0,1.0,0.0,0.0)"/></marker><marker id="ProcessOnMarker1060" markerUnits="userSpaceOnUse" orient="auto" markerWidth="16.23606797749979" markerHeight="10.550836550532098" viewBox="-1.0 -1.3763819204711736 16.23606797749979 10.550836550532098" refX="-1.0" refY="3.8990363547948754"><path id="ProcessOnPath1061" d="M12.0 3.8990363547948754L0.0 7.798072709589751V0.0Z" stroke="#323232" stroke-width="2.0" fill="#323232" transform="matrix(1.0,0.0,0.0,1.0,0.0,0.0)"/></marker><marker id="ProcessOnMarker1068" markerUnits="userSpaceOnUse" orient="auto" markerWidth="16.23606797749979" markerHeight="10.550836550532098" viewBox="-1.0 -1.3763819204711736 16.23606797749979 10.550836550532098" refX="-1.0" refY="3.8990363547948754"><path id="ProcessOnPath1069" d="M12.0 3.8990363547948754L0.0 7.798072709589751V0.0Z" stroke="#323232" stroke-width="2.0" fill="#323232" transform="matrix(1.0,0.0,0.0,1.0,0.0,0.0)"/></marker><marker id="ProcessOnMarker1088" markerUnits="userSpaceOnUse" orient="auto" markerWidth="16.23606797749979" markerHeight="10.550836550532098" viewBox="-1.0 -1.3763819204711736 16.23606797749979 10.550836550532098" refX="-1.0" refY="3.8990363547948754"><path id="ProcessOnPath1089" d="M12.0 3.8990363547948754L0.0 7.798072709589751V0.0Z" stroke="#323232" stroke-width="2.0" fill="#323232" transform="matrix(1.0,0.0,0.0,1.0,0.0,0.0)"/></marker><marker id="ProcessOnMarker1126" markerUnits="userSpaceOnUse" orient="auto" markerWidth="16.23606797749979" markerHeight="10.550836550532098" viewBox="-1.0 -1.3763819204711736 16.23606797749979 10.550836550532098" refX="-1.0" refY="3.8990363547948754"><path id="ProcessOnPath1127" d="M12.0 3.8990363547948754L0.0 7.798072709589751V0.0Z" stroke="#888888" stroke-width="2.0" fill="#888888" transform="matrix(1.0,0.0,0.0,1.0,0.0,0.0)"/></marker><marker id="ProcessOnMarker1166" markerUnits="userSpaceOnUse" orient="auto" markerWidth="16.23606797749979" markerHeight="10.550836550532098" viewBox="-1.0 -1.3763819204711736 16.23606797749979 10.550836550532098" refX="-1.0" refY="3.8990363547948754"><path id="ProcessOnPath1167" d="M12.0 3.8990363547948754L0.0 7.798072709589751V0.0Z" stroke="#888888" stroke-width="2.0" fill="#888888" transform="matrix(1.0,0.0,0.0,1.0,0.0,0.0)"/></marker><marker id="ProcessOnMarker1173" markerUnits="userSpaceOnUse" orient="auto" markerWidth="16.23606797749979" markerHeight="10.550836550532098" viewBox="-1.0 -1.3763819204711736 16.23606797749979 10.550836550532098" refX="-1.0" refY="3.8990363547948754"><path id="ProcessOnPath1174" d="M12.0 3.8990363547948754L0.0 7.798072709589751V0.0Z" stroke="#323232" stroke-width="2.0" fill="#323232" transform="matrix(1.0,0.0,0.0,1.0,0.0,0.0)"/></marker><marker id="ProcessOnMarker1185" markerUnits="userSpaceOnUse" orient="auto" markerWidth="16.23606797749979" markerHeight="10.550836550532098" viewBox="-1.0 -1.3763819204711736 16.23606797749979 10.550836550532098" refX="-1.0" refY="3.8990363547948754"><path id="ProcessOnPath1186" d="M12.0 3.8990363547948754L0.0 7.798072709589751V0.0Z" stroke="#888888" stroke-width="2.0" fill="#888888" transform="matrix(1.0,0.0,0.0,1.0,0.0,0.0)"/></marker><marker id="ProcessOnMarker1193" markerUnits="userSpaceOnUse" orient="auto" markerWidth="16.23606797749979" markerHeight="10.550836550532098" viewBox="-1.0 -1.3763819204711736 16.23606797749979 10.550836550532098" refX="-1.0" refY="3.8990363547948754"><path id="ProcessOnPath1194" d="M12.0 3.8990363547948754L0.0 7.798072709589751V0.0Z" stroke="#888888" stroke-width="2.0" fill="#888888" transform="matrix(1.0,0.0,0.0,1.0,0.0,0.0)"/></marker><marker id="ProcessOnMarker1201" markerUnits="userSpaceOnUse" orient="auto" markerWidth="16.23606797749979" markerHeight="10.550836550532098" viewBox="-1.0 -1.3763819204711736 16.23606797749979 10.550836550532098" refX="-1.0" refY="3.8990363547948754"><path id="ProcessOnPath1202" d="M12.0 3.8990363547948754L0.0 7.798072709589751V0.0Z" stroke="#888888" stroke-width="2.0" fill="#888888" transform="matrix(1.0,0.0,0.0,1.0,0.0,0.0)"/></marker></defs><g id="ProcessOnG1002"><path id="ProcessOnPath1003" d="M63.36665344238281 36.0333251953125H979.8666534423828V969.8666763305664H63.36665344238281V36.0333251953125Z" fill="none"/><g id="ProcessOnG1004"><g id="ProcessOnG1005" transform="matrix(1.0,0.0,0.0,1.0,754.8666534423828,105.06666564941406)" opacity="1.0"><path id="ProcessOnPath1006" d="M10.5 0.0L10.5 519.9333343505859" stroke="#888888" stroke-width="1.0" stroke-dasharray="5.0 2.0 1.0 2.0" opacity="1.0" fill="none"/><path id="ProcessOnPath1007" d="M0.0 0.0L21.0 0.0L21.0 519.9333343505859L0.0 519.9333343505859Z" stroke="none" stroke-width="0.0" stroke-dasharray="0.0 0.0 0.0 0.0" opacity="1.0" fill="none"/></g><g id="ProcessOnG1008" transform="matrix(1.0,0.0,0.0,1.0,133.3666534423828,693.8666687011719)" opacity="1.0"><path id="ProcessOnPath1009" d="M0.0 0.0L633.5 0.0L633.5 256.00000762939453L0.0 256.00000762939453Z" stroke="#323232" stroke-width="2.0" stroke-dasharray="2.0 3.0" opacity="1.0" fill="#ffffff"/></g><g id="ProcessOnG1010" transform="matrix(1.0,0.0,0.0,1.0,325.8666534423828,700.5333404541016)" opacity="1.0"><path id="ProcessOnPath1011" d="M0.0 0.0L230.0 0.0L230.0 47.333335876464844L0.0 47.333335876464844Z" stroke="none" stroke-width="0.0" stroke-dasharray="none" opacity="1.0" fill="#ffffff"/><g id="ProcessOnG1012" transform="matrix(1.0,0.0,0.0,1.0,10.0,15.541667938232422)"><text id="ProcessOnText1013" fill="#000000" font-size="13" x="104.0" y="13.325" font-family="微软雅黑" font-weight="normal" font-style="normal" text-decoration="none" family="微软雅黑" text-anchor="middle" size="13">MQ + Channel MODEL</text></g></g><g id="ProcessOnG1014" transform="matrix(1.0,0.0,0.0,1.0,281.8666534423828,348.86666107177734)" opacity="1.0"><path id="ProcessOnPath1015" d="M0.0 0.0L440.0 0.0L440.0 161.0L0.0 161.0Z" stroke="#323232" stroke-width="2.0" stroke-dasharray="none" opacity="1.0" fill="#ffffff"/></g><g id="ProcessOnG1016"><path id="ProcessOnPath1017" d="M346.8666534423828 139.86666107177734L346.8666534423828 254.19999313354492L346.8666534423828 254.19999313354492L346.8666534423828 353.2972572178127" stroke="#323232" stroke-width="2.0" stroke-dasharray="none" fill="none" marker-end="url(#ProcessOnMarker1018)"/></g><g id="ProcessOnG1020"><path id="ProcessOnPath1021" d="M392.8666534423828 349.5333251953125L392.8666534423828 244.0333251953125L392.8666534423828 244.0333251953125L392.8666534423828 153.7693931728123" stroke="#323232" stroke-width="2.0" stroke-dasharray="none" fill="none" marker-end="url(#ProcessOnMarker1022)"/></g><g id="ProcessOnG1024" transform="matrix(1.0,0.0,0.0,1.0,281.8666534423828,287.86666107177734)" opacity="1.0"><path id="ProcessOnPath1025" d="M0.0 0.0L440.0 0.0L440.0 47.0L0.0 47.0Z" stroke="#8a8a8a" stroke-width="2.0" stroke-dasharray="none" opacity="1.0" fill="#ebebeb"/><g id="ProcessOnG1026" transform="matrix(1.0,0.0,0.0,1.0,10.0,15.375)"><text id="ProcessOnText1027" fill="#000000" font-size="13" x="209.0" y="13.325" font-family="微软雅黑" font-weight="normal" font-style="normal" text-decoration="none" family="微软雅黑" text-anchor="middle" size="13">Transport(HTTP/WS/InProc/IPC)</text></g></g><g id="ProcessOnG1028" transform="matrix(1.0,0.0,0.0,1.0,281.8666534423828,231.86666107177734)" opacity="1.0"><path id="ProcessOnPath1029" d="M0.0 0.0L210.0 0.0L210.0 43.0L0.0 43.0Z" stroke="#323232" stroke-width="2.0" stroke-dasharray="none" opacity="1.0" fill="#ffffff"/><g id="ProcessOnG1030" transform="matrix(1.0,0.0,0.0,1.0,10.0,13.375)"><text id="ProcessOnText1031" fill="#000000" font-size="13" x="94.0" y="13.325" font-family="微软雅黑" font-weight="bold" font-style="normal" text-decoration="none" family="微软雅黑" text-anchor="middle" size="13">               Public(SSL+Auth)</text></g></g><g id="ProcessOnG1032" transform="matrix(1.0,0.0,0.0,1.0,511.8666534423828,231.86666107177734)" opacity="1.0"><path id="ProcessOnPath1033" d="M0.0 0.0L210.0 0.0L210.0 43.0L0.0 43.0Z" stroke="#323232" stroke-width="2.0" stroke-dasharray="none" opacity="1.0" fill="#ffffff"/><g id="ProcessOnG1034" transform="matrix(1.0,0.0,0.0,1.0,10.0,13.375)"><text id="ProcessOnText1035" fill="#000000" font-size="13" x="94.0" y="13.325" font-family="微软雅黑" font-weight="bold" font-style="normal" text-decoration="none" family="微软雅黑" text-anchor="middle" size="13">Private</text></g></g><g id="ProcessOnG1036" transform="matrix(1.0,0.0,0.0,1.0,318.8666534423828,376.86666107177734)" opacity="1.0"><path id="ProcessOnPath1037" d="M0.0 0.0L52.0 0.0L52.0 105.0L0.0 105.0Z" stroke="#323232" stroke-width="2.0" stroke-dasharray="none" opacity="1.0" fill="#ffffff"/></g><g id="ProcessOnG1038" transform="matrix(1.0,0.0,0.0,1.0,318.8666534423828,388.36666107177734)" opacity="1.0"><path id="ProcessOnPath1039" d="M0.0 10.5L52.0 10.5" stroke="#888888" stroke-width="1.0" stroke-dasharray="none" opacity="1.0" fill="none"/><path id="ProcessOnPath1040" d="M0.0 0.0L52.0 0.0L52.0 21.0L0.0 21.0Z" stroke="none" stroke-width="0.0" stroke-dasharray="none" opacity="1.0" fill="none"/></g><g id="ProcessOnG1041" transform="matrix(1.0,0.0,0.0,1.0,318.8666534423828,409.36666107177734)" opacity="1.0"><path id="ProcessOnPath1042" d="M0.0 10.5L52.0 10.5" stroke="#888888" stroke-width="1.0" stroke-dasharray="none" opacity="1.0" fill="none"/><path id="ProcessOnPath1043" d="M0.0 0.0L52.0 0.0L52.0 21.0L0.0 21.0Z" stroke="none" stroke-width="0.0" stroke-dasharray="none" opacity="1.0" fill="none"/></g><g id="ProcessOnG1044" transform="matrix(1.0,0.0,0.0,1.0,318.8666534423828,430.36666107177734)" opacity="1.0"><path id="ProcessOnPath1045" d="M0.0 10.5L52.0 10.5" stroke="#888888" stroke-width="1.0" stroke-dasharray="none" opacity="1.0" fill="none"/><path id="ProcessOnPath1046" d="M0.0 0.0L52.0 0.0L52.0 21.0L0.0 21.0Z" stroke="none" stroke-width="0.0" stroke-dasharray="none" opacity="1.0" fill="none"/></g><g id="ProcessOnG1047" transform="matrix(1.0,0.0,0.0,1.0,318.8666534423828,451.36666107177734)" opacity="1.0"><path id="ProcessOnPath1048" d="M0.0 10.5L52.0 10.5" stroke="#888888" stroke-width="1.0" stroke-dasharray="none" opacity="1.0" fill="none"/><path id="ProcessOnPath1049" d="M0.0 0.0L52.0 0.0L52.0 21.0L0.0 21.0Z" stroke="none" stroke-width="0.0" stroke-dasharray="none" opacity="1.0" fill="none"/></g><g id="ProcessOnG1050" transform="matrix(1.0,0.0,0.0,1.0,281.8666534423828,605.0666656494141)" opacity="1.0"><path id="ProcessOnPath1051" d="M0.0 0.0L158.0 0.0L158.0 48.0L0.0 48.0Z" stroke="#323232" stroke-width="2.0" stroke-dasharray="none" opacity="1.0" fill="#ffffff"/><g id="ProcessOnG1052" transform="matrix(1.0,0.0,0.0,1.0,10.0,15.875)"><text id="ProcessOnText1053" fill="#000000" font-size="13" x="68.0" y="13.325" font-family="微软雅黑" font-weight="normal" font-style="normal" text-decoration="none" family="微软雅黑" text-anchor="middle" size="13">sub</text></g></g><g id="ProcessOnG1054" transform="matrix(1.0,0.0,0.0,1.0,298.8666534423828,92.5333251953125)" opacity="1.0"><path id="ProcessOnPath1055" d="M0.0 0.0L144.0 0.0L144.0 39.0L0.0 39.0Z" stroke="#323232" stroke-width="2.0" stroke-dasharray="none" opacity="1.0" fill="#ffffff"/><g id="ProcessOnG1056" transform="matrix(1.0,0.0,0.0,1.0,10.0,11.375)"><text id="ProcessOnText1057" fill="#000000" font-size="13" x="61.0" y="13.325" font-family="微软雅黑" font-weight="normal" font-style="normal" text-decoration="none" family="微软雅黑" text-anchor="middle" size="13">pub</text></g></g><g id="ProcessOnG1058"><path id="ProcessOnPath1059" d="M390.8666534423828 587.533332824707L390.8666534423828 552.533332824707L390.8666534423828 552.533332824707L390.8666534423828 532.7694008022069" stroke="#323232" stroke-width="2.0" stroke-dasharray="none" fill="none" marker-end="url(#ProcessOnMarker1060)"/></g><g id="ProcessOnG1062" transform="matrix(1.0,0.0,0.0,1.0,362.8666534423828,543.533332824707)" opacity="1.0"><path id="ProcessOnPath1063" d="M0.0 0.0L56.0 0.0L56.0 22.0L0.0 22.0Z" stroke="none" stroke-width="0.0" stroke-dasharray="none" opacity="1.0" fill="#ffffff"/><g id="ProcessOnG1064" transform="matrix(1.0,0.0,0.0,1.0,10.0,2.875)"><text id="ProcessOnText1065" fill="#000000" font-size="13" x="17.0" y="13.325" font-family="微软雅黑" font-weight="normal" font-style="normal" text-decoration="none" family="微软雅黑" text-anchor="middle" size="13">route</text></g></g><g id="ProcessOnG1066"><path id="ProcessOnPath1067" d="M392.8666534423828 498.5333251953125L392.8666534423828 427.0333251953125L392.8666534423828 427.0333251953125L392.8666534423828 370.7693931728123" stroke="#323232" stroke-width="2.0" stroke-dasharray="2.0 3.0" fill="none" marker-end="url(#ProcessOnMarker1068)"/></g><g id="ProcessOnG1070" transform="matrix(1.0,0.0,0.0,1.0,376.8666534423828,421.8666648864746)" opacity="1.0"><path id="ProcessOnPath1071" d="M0.0 0.0L96.0 0.0L96.0 20.499996185302734L0.0 20.499996185302734Z" stroke="none" stroke-width="0.0" stroke-dasharray="none" opacity="1.0" fill="#ffffff"/><g id="ProcessOnG1072" transform="matrix(1.0,0.0,0.0,1.0,10.0,2.124998092651367)"><text id="ProcessOnText1073" fill="#000000" font-size="13" x="37.0" y="13.325" font-family="微软雅黑" font-weight="bold" font-style="normal" text-decoration="none" family="微软雅黑" text-anchor="middle" size="13">route(RPC)</text></g></g><g id="ProcessOnG1074" transform="matrix(1.0,0.0,0.0,1.0,367.8666534423828,183.36666107177734)" opacity="1.0"><path id="ProcessOnPath1075" d="M0.0 0.0L56.0 0.0L56.0 26.0L0.0 26.0Z" stroke="none" stroke-width="0.0" stroke-dasharray="none" opacity="1.0" fill="#ffffff"/><g id="ProcessOnG1076" transform="matrix(1.0,0.0,0.0,1.0,10.0,4.875)"><text id="ProcessOnText1077" fill="#000000" font-size="13" x="17.0" y="13.325" font-family="微软雅黑" font-weight="normal" font-style="normal" text-decoration="none" family="微软雅黑" text-anchor="middle" size="13">route</text></g></g><g id="ProcessOnG1078" transform="matrix(1.0,0.0,0.0,1.0,318.8666534423828,183.36666107177734)" opacity="1.0"><path id="ProcessOnPath1079" d="M0.0 0.0L56.0 0.0L56.0 26.0L0.0 26.0Z" stroke="none" stroke-width="0.0" stroke-dasharray="none" opacity="1.0" fill="#ffffff"/><g id="ProcessOnG1080" transform="matrix(1.0,0.0,0.0,1.0,10.0,4.875)"><text id="ProcessOnText1081" fill="#000000" font-size="13" x="17.0" y="13.325" font-family="微软雅黑" font-weight="normal" font-style="normal" text-decoration="none" family="微软雅黑" text-anchor="middle" size="13">pub</text></g></g><g id="ProcessOnG1082" transform="matrix(1.0,0.0,0.0,1.0,324.8666534423828,367.86666107177734)" opacity="1.0"><path id="ProcessOnPath1083" d="M0.0 0.0L44.0 0.0L44.0 30.0L0.0 30.0Z" stroke="none" stroke-width="0.0" stroke-dasharray="none" opacity="1.0" fill="#ffffff"/><g id="ProcessOnG1084" transform="matrix(1.0,0.0,0.0,1.0,10.0,7.5)"><text id="ProcessOnText1085" fill="#000000" font-size="12" x="11.0" y="12.3" font-family="微软雅黑" font-weight="normal" font-style="normal" text-decoration="none" family="微软雅黑" text-anchor="middle" size="12">MQ</text></g></g><g id="ProcessOnG1086"><path id="ProcessOnPath1087" d="M344.8666534423828 481.86666107177734L344.8666534423828 543.9666633605957L344.8666534423828 543.9666633605957L344.8666534423828 590.8305976719142" stroke="#323232" stroke-width="2.0" stroke-dasharray="none" fill="none" marker-end="url(#ProcessOnMarker1088)"/><g id="ProcessOnG1090" transform="matrix(1.0,0.0,0.0,1.0,344.8666534423828,528.2236293718458)"><path id="ProcessOnPath1091" d="M0 0H22.0V16.25H0Z" fill="#fff" transform="matrix(1.0,0.0,0.0,1.0,-11.0,0.0)"/><text id="ProcessOnText1092" fill="#000000" font-size="13" x="0.0" y="13.325" font-family="微软雅黑" font-weight="normal" font-style="normal" text-decoration="none" family="微软雅黑" text-anchor="middle" size="13">sub</text></g></g><g id="ProcessOnG1093" transform="matrix(1.0,0.0,0.0,1.0,727.8666534423828,242.36666774749756)" opacity="1.0"><path id="ProcessOnPath1094" d="M0.0 10.999993324279785L10.999993324279785 0.0L10.999993324279785 7.259995594024659L58.500006675720215 7.259995594024659L58.500006675720215 0.0L69.5 10.999993324279785L58.500006675720215 21.99998664855957L58.500006675720215 14.739991054534913L10.999993324279785 14.739991054534913L10.999993324279785 21.99998664855957L0.0 10.999993324279785Z" stroke="#323232" stroke-width="2.0" stroke-dasharray="none" opacity="1.0" fill="#ffffff"/></g><g id="ProcessOnG1095" transform="matrix(1.0,0.0,0.0,1.0,263.8666534423828,56.0333251953125)" opacity="1.0"><path id="ProcessOnPath1096" d="M10.799999999999999 49.0C-9.0 35.0 3.6 24.5 8.1 21.0C6.300000000000001 3.5 28.8 0.0 37.8 7.0C45.0 -3.5 67.5 0.0 67.5 10.5C85.5 7.0 92.7 21.0 85.5 38.5C91.8 52.5 85.5 70.0 64.8 63.0C60.300000000000004 72.10000000000001 42.3 72.10000000000001 37.8 63.0C28.8 70.0 10.799999999999999 66.5 10.799999999999999 49.0Z" stroke="#323232" stroke-width="2.0" stroke-dasharray="none" opacity="1.0" fill="#ffffff"/><g id="ProcessOnG1097" transform="matrix(1.0,0.0,0.0,1.0,10.0,26.875)"><text id="ProcessOnText1098" fill="#000000" font-size="13" x="34.0" y="13.325" font-family="微软雅黑" font-weight="normal" font-style="normal" text-decoration="none" family="微软雅黑" text-anchor="middle" size="13">cloud</text></g></g><g id="ProcessOnG1099" transform="matrix(1.0,0.0,0.0,1.0,810.8666534423828,159.06666564941406)" opacity="1.0"><path id="ProcessOnPath1100" d="M0.0 0.0L149.0 0.0L149.0 179.0L0.0 179.0Z" stroke="#323232" stroke-width="2.0" stroke-dasharray="none" opacity="1.0" fill="#ffffff"/><g id="ProcessOnG1101" transform="matrix(1.0,0.0,0.0,1.0,10.0,81.375)"><text id="ProcessOnText1102" fill="#000000" font-size="13" x="63.5" y="13.325" font-family="微软雅黑" font-weight="bold" font-style="normal" text-decoration="none" family="微软雅黑" text-anchor="middle" size="13">Intranet</text></g></g><g id="ProcessOnG1103" transform="matrix(1.0,0.0,0.0,1.0,93.86665344238281,166.3666648864746)" opacity="1.0"><path id="ProcessOnPath1104" d="M0.0 10.5L240.0 10.5" stroke="#888888" stroke-width="1.0" stroke-dasharray="5.0 2.0" opacity="1.0" fill="none"/><path id="ProcessOnPath1105" d="M0.0 0.0L240.0 0.0L240.0 21.0L0.0 21.0Z" stroke="none" stroke-width="0.0" stroke-dasharray="0.0 0.0" opacity="1.0" fill="none"/></g><g id="ProcessOnG1106" transform="matrix(1.0,0.0,0.0,1.0,95.86665344238281,557.3666648864746)" opacity="1.0"><path id="ProcessOnPath1107" d="M0.0 10.5L240.0 10.5" stroke="#888888" stroke-width="1.0" stroke-dasharray="5.0 2.0" opacity="1.0" fill="none"/><path id="ProcessOnPath1108" d="M0.0 0.0L240.0 0.0L240.0 21.0L0.0 21.0Z" stroke="none" stroke-width="0.0" stroke-dasharray="0.0 0.0" opacity="1.0" fill="none"/></g><g id="ProcessOnG1109" transform="matrix(1.0,0.0,0.0,1.0,83.36665344238281,178.53333282470703)" opacity="1.0"><path id="ProcessOnPath1110" d="M10.5 0.0L10.5 387.0" stroke="#888888" stroke-width="1.0" stroke-dasharray="5.0 2.0" opacity="1.0" fill="none"/><path id="ProcessOnPath1111" d="M0.0 0.0L21.0 0.0L21.0 387.0L0.0 387.0Z" stroke="none" stroke-width="0.0" stroke-dasharray="0.0 0.0" opacity="1.0" fill="none"/></g><g id="ProcessOnG1112" transform="matrix(1.0,0.0,0.0,1.0,117.86665344238281,161.8666648864746)" opacity="1.0"><path id="ProcessOnPath1113" d="M0.0 0.0L155.0 0.0L155.0 30.0L0.0 30.0Z" stroke="#323232" stroke-width="2.0" stroke-dasharray="2.0 3.0" opacity="1.0" fill="#ffffff"/><g id="ProcessOnG1114" transform="matrix(1.0,0.0,0.0,1.0,10.0,6.875)"><text id="ProcessOnText1115" fill="#000000" font-size="13" x="66.5" y="13.325" font-family="微软雅黑" font-weight="normal" font-style="normal" text-decoration="none" family="微软雅黑" text-anchor="middle" size="13">HTTP Alike JSON</text></g></g><g id="ProcessOnG1116" transform="matrix(1.0,0.0,0.0,1.0,234.8666534423828,758.0333290100098)" opacity="1.0"><path id="ProcessOnPath1117" d="M0.0 0.0L260.0 0.0L260.0 40.66667175292969L0.0 40.66667175292969Z" stroke="#323232" stroke-width="2.0" stroke-dasharray="none" opacity="1.0" fill="#ffffff"/></g><g id="ProcessOnG1118" transform="matrix(1.0,0.0,0.0,1.0,362.3666534423828,847.8666610717773)" opacity="1.0"><path id="ProcessOnPath1119" d="M0.0 11.0L182.5 11.0" stroke="#888888" stroke-width="8.0" stroke-dasharray="none" opacity="1.0" fill="none"/><path id="ProcessOnPath1120" d="M0.0 0.0L182.5 0.0L182.5 21.0L0.0 21.0Z" stroke="none" stroke-width="0.0" stroke-dasharray="none" opacity="1.0" fill="none"/></g><g id="ProcessOnG1121" transform="matrix(1.0,0.0,0.0,1.0,315.3666534423828,896.3666687011719)" opacity="1.0"><path id="ProcessOnPath1122" d="M0.0 11.0L225.0 11.0" stroke="#888888" stroke-width="8.0" stroke-dasharray="none" opacity="1.0" fill="none"/><path id="ProcessOnPath1123" d="M0.0 0.0L225.0 0.0L225.0 21.0L0.0 21.0Z" stroke="none" stroke-width="0.0" stroke-dasharray="none" opacity="1.0" fill="none"/></g><g id="ProcessOnG1124"><path id="ProcessOnPath1125" d="M314.8666534423828 910.8666839599609L314.8666534423828 856.8666763305664L314.8666534423828 856.8666763305664L314.8666534423828 818.1027366786717" stroke="#888888" stroke-width="2.0" stroke-dasharray="none" fill="none" marker-end="url(#ProcessOnMarker1126)"/><g id="ProcessOnG1128" transform="matrix(1.0,0.0,0.0,1.0,314.8666534423828,856.3597103193163)"><path id="ProcessOnPath1129" d="M0 0H56.0V16.25H0Z" fill="#fff" transform="matrix(1.0,0.0,0.0,1.0,-28.0,0.0)"/><text id="ProcessOnText1130" fill="#000000" font-size="13" x="0.0" y="13.325" font-family="微软雅黑" font-weight="normal" font-style="normal" text-decoration="none" family="微软雅黑" text-anchor="middle" size="13">channel1</text></g></g><g id="ProcessOnG1131" transform="matrix(1.0,0.0,0.0,1.0,249.3666534423828,758.0333290100098)" opacity="1.0"><path id="ProcessOnPath1132" d="M10.5 0.0L10.5 40.66667175292969" stroke="#888888" stroke-width="1.0" stroke-dasharray="none" opacity="1.0" fill="none"/><path id="ProcessOnPath1133" d="M0.0 0.0L21.0 0.0L21.0 40.66667175292969L0.0 40.66667175292969Z" stroke="none" stroke-width="0.0" stroke-dasharray="none" opacity="1.0" fill="none"/></g><g id="ProcessOnG1134" transform="matrix(1.0,0.0,0.0,1.0,270.3666534423828,758.0333290100098)" opacity="1.0"><path id="ProcessOnPath1135" d="M10.5 0.0L10.5 40.66667175292969" stroke="#888888" stroke-width="1.0" stroke-dasharray="none" opacity="1.0" fill="none"/><path id="ProcessOnPath1136" d="M0.0 0.0L21.0 0.0L21.0 40.66667175292969L0.0 40.66667175292969Z" stroke="none" stroke-width="0.0" stroke-dasharray="none" opacity="1.0" fill="none"/></g><g id="ProcessOnG1137" transform="matrix(1.0,0.0,0.0,1.0,294.3666534423828,758.0333290100098)" opacity="1.0"><path id="ProcessOnPath1138" d="M10.5 0.0L10.5 40.66667175292969" stroke="#888888" stroke-width="1.0" stroke-dasharray="none" opacity="1.0" fill="none"/><path id="ProcessOnPath1139" d="M0.0 0.0L21.0 0.0L21.0 40.66667175292969L0.0 40.66667175292969Z" stroke="none" stroke-width="0.0" stroke-dasharray="none" opacity="1.0" fill="none"/></g><g id="ProcessOnG1140" transform="matrix(1.0,0.0,0.0,1.0,467.3666534423828,758.0333290100098)" opacity="1.0"><path id="ProcessOnPath1141" d="M10.5 0.0L10.5 40.66667175292969" stroke="#888888" stroke-width="1.0" stroke-dasharray="none" opacity="1.0" fill="none"/><path id="ProcessOnPath1142" d="M0.0 0.0L21.0 0.0L21.0 40.66667175292969L0.0 40.66667175292969Z" stroke="none" stroke-width="0.0" stroke-dasharray="none" opacity="1.0" fill="none"/></g><g id="ProcessOnG1143" transform="matrix(1.0,0.0,0.0,1.0,446.3666534423828,758.0333290100098)" opacity="1.0"><path id="ProcessOnPath1144" d="M10.5 0.0L10.5 40.66667175292969" stroke="#888888" stroke-width="1.0" stroke-dasharray="none" opacity="1.0" fill="none"/><path id="ProcessOnPath1145" d="M0.0 0.0L21.0 0.0L21.0 40.66667175292969L0.0 40.66667175292969Z" stroke="none" stroke-width="0.0" stroke-dasharray="none" opacity="1.0" fill="none"/></g><g id="ProcessOnG1146" transform="matrix(1.0,0.0,0.0,1.0,404.3666534423828,758.0333290100098)" opacity="1.0"><path id="ProcessOnPath1147" d="M10.5 0.0L10.5 40.66667175292969" stroke="#888888" stroke-width="1.0" stroke-dasharray="none" opacity="1.0" fill="none"/><path id="ProcessOnPath1148" d="M0.0 0.0L21.0 0.0L21.0 40.66667175292969L0.0 40.66667175292969Z" stroke="none" stroke-width="0.0" stroke-dasharray="none" opacity="1.0" fill="none"/></g><g id="ProcessOnG1149" transform="matrix(1.0,0.0,0.0,1.0,425.3666534423828,758.0333290100098)" opacity="1.0"><path id="ProcessOnPath1150" d="M10.5 0.0L10.5 40.66667175292969" stroke="#888888" stroke-width="1.0" stroke-dasharray="none" opacity="1.0" fill="none"/><path id="ProcessOnPath1151" d="M0.0 0.0L21.0 0.0L21.0 40.66667175292969L0.0 40.66667175292969Z" stroke="none" stroke-width="0.0" stroke-dasharray="none" opacity="1.0" fill="none"/></g><g id="ProcessOnG1152" transform="matrix(1.0,0.0,0.0,1.0,383.3666534423828,758.0333290100098)" opacity="1.0"><path id="ProcessOnPath1153" d="M10.5 0.0L10.5 40.66667175292969" stroke="#888888" stroke-width="1.0" stroke-dasharray="none" opacity="1.0" fill="none"/><path id="ProcessOnPath1154" d="M0.0 0.0L21.0 0.0L21.0 40.66667175292969L0.0 40.66667175292969Z" stroke="none" stroke-width="0.0" stroke-dasharray="none" opacity="1.0" fill="none"/></g><g id="ProcessOnG1155" transform="matrix(1.0,0.0,0.0,1.0,362.3666534423828,758.0333290100098)" opacity="1.0"><path id="ProcessOnPath1156" d="M10.5 0.0L10.5 40.66667175292969" stroke="#888888" stroke-width="1.0" stroke-dasharray="none" opacity="1.0" fill="none"/><path id="ProcessOnPath1157" d="M0.0 0.0L21.0 0.0L21.0 40.66667175292969L0.0 40.66667175292969Z" stroke="none" stroke-width="0.0" stroke-dasharray="none" opacity="1.0" fill="none"/></g><g id="ProcessOnG1158" transform="matrix(1.0,0.0,0.0,1.0,341.3666534423828,758.0333290100098)" opacity="1.0"><path id="ProcessOnPath1159" d="M10.5 0.0L10.5 40.66667175292969" stroke="#888888" stroke-width="1.0" stroke-dasharray="none" opacity="1.0" fill="none"/><path id="ProcessOnPath1160" d="M0.0 0.0L21.0 0.0L21.0 40.66667175292969L0.0 40.66667175292969Z" stroke="none" stroke-width="0.0" stroke-dasharray="none" opacity="1.0" fill="none"/></g><g id="ProcessOnG1161" transform="matrix(1.0,0.0,0.0,1.0,320.3666534423828,758.0333290100098)" opacity="1.0"><path id="ProcessOnPath1162" d="M10.5 0.0L10.5 40.66667175292969" stroke="#888888" stroke-width="1.0" stroke-dasharray="none" opacity="1.0" fill="none"/><path id="ProcessOnPath1163" d="M0.0 0.0L21.0 0.0L21.0 40.66667175292969L0.0 40.66667175292969Z" stroke="none" stroke-width="0.0" stroke-dasharray="none" opacity="1.0" fill="none"/></g><g id="ProcessOnG1164"><path id="ProcessOnPath1165" d="M363.8666534423828 858.8666839599609L363.8666534423828 830.3666763305664L363.8666534423828 830.3666763305664L363.8666534423828 817.1027366786717" stroke="#888888" stroke-width="2.0" stroke-dasharray="none" fill="none" marker-end="url(#ProcessOnMarker1166)"/><g id="ProcessOnG1168" transform="matrix(1.0,0.0,0.0,1.0,363.8666534423828,829.8597103193163)"><path id="ProcessOnPath1169" d="M0 0H56.0V16.25H0Z" fill="#fff" transform="matrix(1.0,0.0,0.0,1.0,-28.0,0.0)"/><text id="ProcessOnText1170" fill="#000000" font-size="13" x="0.0" y="13.325" font-family="微软雅黑" font-weight="normal" font-style="normal" text-decoration="none" family="微软雅黑" text-anchor="middle" size="13">channel2</text></g></g><g id="ProcessOnG1171"><path id="ProcessOnPath1172" d="M178.8666534423828 779.8666687011719L202.8666534423828 779.8666687011719L202.8666534423828 779.8666687011719L211.630585464883 779.8666687011719" stroke="#323232" stroke-width="2.0" stroke-dasharray="none" fill="none" marker-end="url(#ProcessOnMarker1173)"/></g><g id="ProcessOnG1175" transform="matrix(1.0,0.0,0.0,1.0,141.8666534423828,765.3666648864746)" opacity="1.0"><path id="ProcessOnPath1176" d="M0.0 0.0L56.0 0.0L56.0 26.0L0.0 26.0Z" stroke="none" stroke-width="0.0" stroke-dasharray="none" opacity="1.0" fill="#ffffff"/><g id="ProcessOnG1177" transform="matrix(1.0,0.0,0.0,1.0,10.0,4.875)"><text id="ProcessOnText1178" fill="#000000" font-size="13" x="17.0" y="13.325" font-family="微软雅黑" font-weight="normal" font-style="normal" text-decoration="none" family="微软雅黑" text-anchor="middle" size="13">pub</text></g></g><g id="ProcessOnG1179" transform="matrix(1.0,0.0,0.0,1.0,596.3666534423828,783.8666610717773)" opacity="1.0"><path id="ProcessOnPath1180" d="M0.0 0.0L56.0 0.0L56.0 26.0L0.0 26.0Z" stroke="none" stroke-width="0.0" stroke-dasharray="none" opacity="1.0" fill="#ffffff"/><g id="ProcessOnG1181" transform="matrix(1.0,0.0,0.0,1.0,10.0,4.875)"><text id="ProcessOnText1182" fill="#000000" font-size="13" x="17.0" y="13.325" font-family="微软雅黑" font-weight="normal" font-style="normal" text-decoration="none" family="微软雅黑" text-anchor="middle" size="13">sub1</text></g></g><g id="ProcessOnG1183"><path id="ProcessOnPath1184" d="M546.8666534423828 858.8666687011719L546.8666534423828 796.8666610717773L581.130585464883 796.8666610717773" stroke="#888888" stroke-width="2.0" stroke-dasharray="none" fill="none" marker-end="url(#ProcessOnMarker1185)"/></g><g id="ProcessOnG1187" transform="matrix(1.0,0.0,0.0,1.0,596.3666534423828,815.8666610717773)" opacity="1.0"><path id="ProcessOnPath1188" d="M0.0 0.0L56.0 0.0L56.0 26.0L0.0 26.0Z" stroke="none" stroke-width="0.0" stroke-dasharray="none" opacity="1.0" fill="#ffffff"/><g id="ProcessOnG1189" transform="matrix(1.0,0.0,0.0,1.0,10.0,4.875)"><text id="ProcessOnText1190" fill="#000000" font-size="13" x="17.0" y="13.325" font-family="微软雅黑" font-weight="normal" font-style="normal" text-decoration="none" family="微软雅黑" text-anchor="middle" size="13">sub2</text></g></g><g id="ProcessOnG1191"><path id="ProcessOnPath1192" d="M542.8666534423828 857.8666687011719L569.6166534423828 857.8666687011719L569.6166534423828 828.8666610717773L581.130585464883 828.8666610717773" stroke="#888888" stroke-width="2.0" stroke-dasharray="none" fill="none" marker-end="url(#ProcessOnMarker1193)"/></g><g id="ProcessOnG1195" transform="matrix(1.0,0.0,0.0,1.0,596.3666534423828,893.8666687011719)" opacity="1.0"><path id="ProcessOnPath1196" d="M0.0 0.0L56.0 0.0L56.0 26.0L0.0 26.0Z" stroke="none" stroke-width="0.0" stroke-dasharray="none" opacity="1.0" fill="#ffffff"/><g id="ProcessOnG1197" transform="matrix(1.0,0.0,0.0,1.0,10.0,4.875)"><text id="ProcessOnText1198" fill="#000000" font-size="13" x="17.0" y="13.325" font-family="微软雅黑" font-weight="normal" font-style="normal" text-decoration="none" family="微软雅黑" text-anchor="middle" size="13">sub3</text></g></g><g id="ProcessOnG1199"><path id="ProcessOnPath1200" d="M539.3666534423828 907.8666687011719L566.1166534423828 907.8666687011719L566.1166534423828 907.8666687011719L577.630585464883 907.8666687011719" stroke="#888888" stroke-width="2.0" stroke-dasharray="none" fill="none" marker-end="url(#ProcessOnMarker1201)"/></g><g id="ProcessOnG1203" transform="matrix(1.0,0.0,0.0,1.0,432.3666534423828,828.8666610717773)" opacity="1.0"><path id="ProcessOnPath1204" d="M0.0 0.0L56.0 0.0L56.0 26.0L0.0 26.0Z" stroke="none" stroke-width="0.0" stroke-dasharray="none" opacity="1.0" fill="#ffffff"/><g id="ProcessOnG1205" transform="matrix(1.0,0.0,0.0,1.0,10.0,4.875)"><text id="ProcessOnText1206" fill="#000000" font-size="13" x="17.0" y="13.325" font-family="微软雅黑" font-weight="normal" font-style="normal" text-decoration="none" family="微软雅黑" text-anchor="middle" size="13">filter</text></g></g><g id="ProcessOnG1207" transform="matrix(1.0,0.0,0.0,1.0,432.3666534423828,876.8666610717773)" opacity="1.0"><path id="ProcessOnPath1208" d="M0.0 0.0L56.0 0.0L56.0 26.0L0.0 26.0Z" stroke="none" stroke-width="0.0" stroke-dasharray="none" opacity="1.0" fill="#ffffff"/><g id="ProcessOnG1209" transform="matrix(1.0,0.0,0.0,1.0,10.0,4.875)"><text id="ProcessOnText1210" fill="#000000" font-size="13" x="17.0" y="13.325" font-family="微软雅黑" font-weight="normal" font-style="normal" text-decoration="none" family="微软雅黑" text-anchor="middle" size="13">filter</text></g></g><g id="ProcessOnG1211" transform="matrix(1.0,0.0,0.0,1.0,647.8666534423828,777.8666610717773)" opacity="1.0"><path id="ProcessOnPath1212" d="M0.0 19.0C0.0 -6.333333333333333 92.0 -6.333333333333333 92.0 19.0Q90.16 37.24 46.0 38.0Q30.666666666666668 38.0 15.333333333333334 34.2L0.0 38.0L10.764000000000001 32.566Q0.0 26.599999999999998 0.0 19.0" stroke="#323232" stroke-width="2.0" stroke-dasharray="none" opacity="1.0" fill="#ffffff"/><g id="ProcessOnG1213" transform="matrix(1.0,0.0,0.0,1.0,10.0,10.875)"><text id="ProcessOnText1214" fill="#000000" font-size="13" x="35.0" y="13.325" font-family="微软雅黑" font-weight="normal" font-style="normal" text-decoration="none" family="微软雅黑" text-anchor="middle" size="13">unicast</text></g></g><g id="ProcessOnG1215" transform="matrix(1.0,0.0,0.0,1.0,648.8666534423828,870.8666610717773)" opacity="1.0"><path id="ProcessOnPath1216" d="M0.0 19.0C0.0 -6.333333333333333 96.0 -6.333333333333333 96.0 19.0Q94.08 37.24 48.0 38.0Q32.0 38.0 16.0 34.2L0.0 38.0L11.232000000000001 32.566Q0.0 26.599999999999998 0.0 19.0" stroke="#323232" stroke-width="2.0" stroke-dasharray="none" opacity="1.0" fill="#ffffff"/><g id="ProcessOnG1217" transform="matrix(1.0,0.0,0.0,1.0,10.0,10.875)"><text id="ProcessOnText1218" fill="#000000" font-size="13" x="37.0" y="13.325" font-family="微软雅黑" font-weight="normal" font-style="normal" text-decoration="none" family="微软雅黑" text-anchor="middle" size="13">broadcast</text></g></g><g id="ProcessOnG1219" transform="matrix(1.0,0.0,0.0,1.0,418.8666534423828,156.36666107177734)" opacity="1.0"><path id="ProcessOnPath1220" d="M0.0 0.0L173.0 0.0L173.0 47.500003814697266L0.0 47.500003814697266Z" stroke="#323232" stroke-width="2.0" stroke-dasharray="10.0 4.0" opacity="1.0" fill="#ffffff"/><g id="ProcessOnG1221" transform="matrix(1.0,0.0,0.0,1.0,10.0,15.625001907348633)"><text id="ProcessOnText1222" fill="#000000" font-size="13" x="75.5" y="13.325" font-family="微软雅黑" font-weight="normal" font-style="normal" text-decoration="none" family="微软雅黑" text-anchor="middle" size="13">JAVA/JS/Python/.NET ....</text></g></g><g id="ProcessOnG1223" transform="matrix(1.0,0.0,0.0,1.0,418.8666534423828,539.0333290100098)" opacity="1.0"><path id="ProcessOnPath1224" d="M0.0 0.0L173.0 0.0L173.0 47.500003814697266L0.0 47.500003814697266Z" stroke="#323232" stroke-width="2.0" stroke-dasharray="10.0 4.0" opacity="1.0" fill="#ffffff"/><g id="ProcessOnG1225" transform="matrix(1.0,0.0,0.0,1.0,10.0,15.625001907348633)"><text id="ProcessOnText1226" fill="#000000" font-size="13" x="75.5" y="13.325" font-family="微软雅黑" font-weight="normal" font-style="normal" text-decoration="none" family="微软雅黑" text-anchor="middle" size="13">JAVA/JS/Python/.NET ....</text></g></g><g id="ProcessOnG1227" transform="matrix(1.0,0.0,0.0,1.0,559.8666534423828,358.86666107177734)" opacity="1.0"><path id="ProcessOnPath1228" d="M0.0 0.0L89.0 0.0L89.0 39.0L0.0 39.0Z" stroke="#323232" stroke-width="2.0" stroke-dasharray="none" opacity="1.0" fill="#ffffff"/><g id="ProcessOnG1229" transform="matrix(1.0,0.0,0.0,1.0,10.0,11.375)"><text id="ProcessOnText1230" fill="#000000" font-size="13" x="33.5" y="13.325" font-family="微软雅黑" font-weight="normal" font-style="normal" text-decoration="none" family="微软雅黑" text-anchor="middle" size="13">memory</text></g></g><g id="ProcessOnG1231" transform="matrix(1.0,0.0,0.0,1.0,559.8666534423828,409.36666107177734)" opacity="1.0"><path id="ProcessOnPath1232" d="M0.0 0.0L89.0 0.0L89.0 39.0L0.0 39.0Z" stroke="#323232" stroke-width="2.0" stroke-dasharray="none" opacity="1.0" fill="#ffffff"/><g id="ProcessOnG1233" transform="matrix(1.0,0.0,0.0,1.0,10.0,11.375)"><text id="ProcessOnText1234" fill="#000000" font-size="13" x="33.5" y="13.325" font-family="微软雅黑" font-weight="normal" font-style="normal" text-decoration="none" family="微软雅黑" text-anchor="middle" size="13">disk</text></g></g><g id="ProcessOnG1235" transform="matrix(1.0,0.0,0.0,1.0,559.8666534423828,457.8666763305664)" opacity="1.0"><path id="ProcessOnPath1236" d="M0.0 0.0L89.0 0.0L89.0 39.0L0.0 39.0Z" stroke="#323232" stroke-width="2.0" stroke-dasharray="none" opacity="1.0" fill="#ffffff"/><g id="ProcessOnG1237" transform="matrix(1.0,0.0,0.0,1.0,10.0,11.375)"><text id="ProcessOnText1238" fill="#000000" font-size="13" x="33.5" y="13.325" font-family="微软雅黑" font-weight="normal" font-style="normal" text-decoration="none" family="微软雅黑" text-anchor="middle" size="13">db</text></g></g><g id="ProcessOnG1239" transform="matrix(1.0,0.0,0.0,1.0,241.3666534423828,573.0333251953125)" opacity="1.0"><path id="ProcessOnPath1240" d="M10.799999999999999 49.0C-9.0 35.0 3.6 24.5 8.1 21.0C6.300000000000001 3.5 28.8 0.0 37.8 7.0C45.0 -3.5 67.5 0.0 67.5 10.5C85.5 7.0 92.7 21.0 85.5 38.5C91.8 52.5 85.5 70.0 64.8 63.0C60.300000000000004 72.10000000000001 42.3 72.10000000000001 37.8 63.0C28.8 70.0 10.799999999999999 66.5 10.799999999999999 49.0Z" stroke="#323232" stroke-width="2.0" stroke-dasharray="none" opacity="1.0" fill="#ffffff"/><g id="ProcessOnG1241" transform="matrix(1.0,0.0,0.0,1.0,10.0,26.875)"><text id="ProcessOnText1242" fill="#000000" font-size="13" x="34.0" y="13.325" font-family="微软雅黑" font-weight="normal" font-style="normal" text-decoration="none" family="微软雅黑" text-anchor="middle" size="13">cloud</text></g></g><g id="ProcessOnG1243" transform="matrix(1.0,0.0,0.0,1.0,839.8666534423828,187.3666648864746)" opacity="1.0"><path id="ProcessOnPath1244" d="M0.0 0.0L91.0 0.0L91.0 42.20000076293945L0.0 42.20000076293945Z" stroke="#323232" stroke-width="2.0" stroke-dasharray="none" opacity="1.0" fill="#ffffff"/><g id="ProcessOnG1245" transform="matrix(1.0,0.0,0.0,1.0,10.0,12.975000381469727)"><text id="ProcessOnText1246" fill="#000000" font-size="13" x="34.5" y="13.325" font-family="微软雅黑" font-weight="normal" font-style="normal" text-decoration="none" family="微软雅黑" text-anchor="middle" size="13">pub</text></g></g><g id="ProcessOnG1247" transform="matrix(1.0,0.0,0.0,1.0,840.3666534423828,271.86666107177734)" opacity="1.0"><path id="ProcessOnPath1248" d="M0.0 0.0L90.0 0.0L90.0 41.0L0.0 41.0Z" stroke="#323232" stroke-width="2.0" stroke-dasharray="none" opacity="1.0" fill="#ffffff"/><g id="ProcessOnG1249" transform="matrix(1.0,0.0,0.0,1.0,10.0,12.375)"><text id="ProcessOnText1250" fill="#000000" font-size="13" x="34.0" y="13.325" font-family="微软雅黑" font-weight="normal" font-style="normal" text-decoration="none" family="微软雅黑" text-anchor="middle" size="13">sub</text></g></g></g></g></svg>